<svg width="777" height="266" viewBox="0 0 777 266" fill="none" xmlns="http://www.w3.org/2000/svg">
<path d="M47.5478 25.6003H31.6944V12.7952H47.5478V25.6003ZM31.6944 25.6003H15.841V38.4054H31.6944V25.6003ZM745.293 25.6003V12.7952H729.44V25.6003H745.293ZM761.147 38.4054V25.6003H745.293V38.4054H761.147ZM0 38.4054V227.595H15.8534V38.4054H0ZM15.8534 227.595V240.4H31.7067V227.595H15.8534ZM729.44 0H47.5478V12.8051H729.44V0ZM745.293 240.4H761.147V227.595H745.293V240.4ZM761.147 38.4054V227.595H777V38.4054H761.147ZM729.452 253.195H745.306V240.39H729.452V253.195ZM47.5601 253.195V266H729.452V253.195H47.5478H47.5601ZM31.7067 240.39V253.195H47.5601V240.39H31.7067Z" fill="#FF9569"/>
</svg>
