<svg width="115" height="82" viewBox="0 0 115 82" fill="none" xmlns="http://www.w3.org/2000/svg">
<g clipPath="url(#clip0_1943_3167)">
<path d="M35.5984 12.59H37.1126C37.1126 12.59 36.048 11.4024 36.3829 10.0832C36.4588 9.75752 36.6 9.27739 36.8794 8.74722C37.1576 8.21952 37.3963 7.97668 37.8366 7.33899C38.063 7.01211 38.3744 6.53384 38.7093 5.92087C38.8179 5.59338 38.9079 5.17134 38.8907 4.6838C38.8308 3.01049 37.556 1.93902 37.2772 1.71533C37.5024 2.00946 37.775 2.44571 37.9421 3.02161C38.3467 4.4113 37.849 5.60759 37.672 5.98699C37.5498 5.99379 37.3932 5.9839 37.2273 5.92087C36.658 5.70584 36.4909 5.06506 36.4699 4.98102C36.4286 5.1009 36.3225 5.463 36.4699 5.87144C36.7018 6.51284 37.3543 6.70068 36.04 8.36782C35.818 8.75649 35.4584 9.40036 35.3406 10.3223C35.2142 11.311 35.4288 12.121 35.5978 12.59H35.5984Z" fill="white"/>
<path d="M50.6516 32.5555L41.9603 19.7906L41.7937 19.7553L44.9336 17.3467L49.5821 15.4707C49.2639 14.3708 48.9456 13.2709 48.6274 12.1704C45.9605 12.4232 43.2937 12.6765 40.6274 12.9292C39.6894 12.6654 38.6199 12.4194 37.4339 12.2365C36.2972 12.0611 35.2469 11.9739 34.3063 11.9399C34.2514 13.1276 34.1966 14.3146 34.1417 15.5022C34.1306 16.3815 34.1195 17.2614 34.109 18.1407L38.0599 26.4529L39.5087 31.4667L37.6652 35.5567L32.5295 36.3483L22.0237 39.7981H13.0376L8.03322 43.209L3.95093 44.6605H0L3.68757 45.8481H7.90185L9.61397 48.7505V49.8158C10.6106 49.5939 11.706 49.3993 12.8902 49.2609C14.4216 49.0817 15.8419 49.0267 17.1236 49.0446C17.2636 48.6151 17.6657 48.3049 18.1412 48.3049C18.7321 48.3049 19.2113 48.7851 19.2113 49.377C19.2113 49.969 18.7321 50.4491 18.1412 50.4491C17.7045 50.4491 17.3289 50.1871 17.163 49.8114C15.8919 49.8114 14.5233 49.8658 13.0709 50.0017C11.8429 50.1167 10.6884 50.2773 9.61458 50.4658L11.5537 53.4608C11.4994 53.3768 11.4451 53.2934 11.3908 53.2094C12.2049 53.108 13.0851 53.0295 14.0238 52.99C14.7355 52.9597 15.4158 52.9548 16.0621 52.9684C16.2095 52.5525 16.6055 52.2547 17.0711 52.2547C17.662 52.2547 18.1412 52.7348 18.1412 53.3268C18.1412 53.9187 17.662 54.3988 17.0711 54.3988C16.6067 54.3988 16.2114 54.1022 16.0634 53.6876C15.8419 53.6783 15.615 53.6716 15.3831 53.6679L14.7762 55.7546L14.7657 55.7515L12.7267 55.7521L12.2894 59.4756C12.3129 59.2736 12.3369 59.0715 12.3604 58.8695C12.6472 58.8163 12.9599 58.7718 13.296 58.7428C13.843 58.6952 14.3408 58.6989 14.7768 58.7273C14.9045 58.335 15.2727 58.0513 15.7069 58.0513C16.2472 58.0513 16.6857 58.4901 16.6857 59.032C16.6857 59.5739 16.2478 60.0126 15.7069 60.0126C15.6057 60.0126 15.5083 59.9972 15.417 59.9687C15.0402 59.852 14.8607 59.5238 14.8126 59.4293C14.3722 59.3941 13.84 59.3898 13.2442 59.4639C12.8846 59.5084 12.5583 59.5751 12.2691 59.6499L12.2475 59.834L8.28301 63.1053C9.04223 63.1133 9.80146 63.122 10.5607 63.13C10.6791 62.6666 11.0985 62.3242 11.5974 62.3242C12.1883 62.3242 12.6675 62.8044 12.6675 63.3963C12.6675 63.9883 12.1883 64.4684 11.5974 64.4684C11.0812 64.4684 10.6507 64.1026 10.5496 63.6157C9.62322 63.5866 8.69623 63.5576 7.76987 63.5279L6.32111 77.2494H8.42795L8.6913 78.9647L7.90124 79.6247L8.29658 81.9993H12.1155L10.1401 78.9647V77.1178L8.55993 73.4233L10.272 66.2987L22.0224 55.4796L23.7049 53.3688L30.5528 54.688L33.845 53.2365L37.6639 60.625L36.7419 64.8472L37.7953 67.7495L37.9273 77.9087L39.5074 78.7003L38.8487 81.9987H43.063L41.2195 78.3042L41.0222 76.0445L40.0347 73.5209L39.7387 66.2974L40.6768 65.0109L40.4301 61.6958L41.1215 53.7303L45.2204 46.8034L49.27 43.2906L50.8995 37.8479L50.6528 32.5536L50.6516 32.5555Z" fill="#E4E9EF"/>
<path d="M14.8471 53.666C14.6954 53.6666 14.5412 53.6691 14.3852 53.6728C13.4526 53.6951 12.5917 53.7674 11.8139 53.8656L12.7212 55.267H14.3815L14.8471 53.666Z" fill="#E4E9EF"/>
<path d="M22.2476 56.863L14.1816 63.4272L16.6505 71.0794L16.8812 76.4893L18.7247 76.9509L19.2187 78.6662L18.6587 79.6889L18.5273 81.7669H22.4449L21.3588 79.1278L20.6014 78.8312L20.7328 77.6108L17.9346 70.024L18.1653 64.9114L22.2476 56.863Z" fill="#E4E9EF"/>
<path d="M35.2931 17.086L31.7376 17.8775L27.3919 14.0514H29.8941H35.2931V17.086Z" fill="#CBCFD3"/>
<path d="M43.3264 52.2473L45.0545 50.0704L45.1538 48.2512L47.4253 46.8053L53.1537 58.1849L52.8577 61.5L47.7214 63.6275L40.8569 68.5257V67.0909L41.7462 66.2499L41.5976 64.5179L46.3879 62.5387L48.8574 60.164L48.9068 58.7292L43.3264 52.2473Z" fill="#E4E9EF"/>
<path d="M26.9966 15.1068L28.906 17.086L31.0135 17.6137L29.0047 15.9645L27.8526 15.1068H26.9966Z" fill="white"/>
<path d="M39.6955 12.6857L37.7127 15.7333L41.9603 19.7905L44.5858 17.6136L49.5815 15.4713L48.6268 12.171L42.1576 13.1603L39.6955 12.6857Z" fill="#C6BFBA"/>
<path d="M41.9603 19.7905L36.2504 22.649L45.1322 24.449L41.9603 19.7905Z" fill="#CBCFD3"/>
<path d="M39.4439 31.2479L50.4906 32.3194L40.3302 44.3311L37.6633 35.5573L39.4439 31.2479Z" fill="#CBCFD3"/>
<path d="M45.2192 46.8053L49.2688 43.2925L50.8983 37.8499L45.1322 42.7481L45.2192 46.8053Z" fill="#CBCFD3"/>
<path d="M33.8444 53.2371L27.1804 38.105L23.7043 53.3688L30.5522 54.6886L33.8444 53.2371Z" fill="#CBCFD3"/>
<path d="M45.0052 50.0703C44.4291 50.7957 43.8531 51.5218 43.277 52.2472L48.8574 58.7286C50.2895 58.5382 51.7216 58.3473 53.1537 58.157C50.4375 55.4616 47.7214 52.7657 45.0052 50.0703Z" fill="#CBCFD3"/>
<path d="M39.5074 78.7015L41.2189 78.3054L43.063 81.9999H38.8487L39.5074 78.7015Z" fill="white"/>
<path d="M34.2231 67.8497L34.0257 71.1642L36.7912 69.5069V67.2064L34.2231 67.8497Z" fill="white"/>
<path d="M19.2187 78.6663L18.6587 79.6889L18.5273 81.767H22.4449L21.3588 79.1278L20.6014 78.8312L19.2187 78.6663Z" fill="white"/>
<path d="M8.69131 78.9653L7.90125 79.6246L8.29658 81.9999H12.2802L10.2955 79.2038L8.69131 78.9653Z" fill="white"/>
<path d="M9.64295 68.9168C9.01879 67.1205 8.39402 65.3248 7.76987 63.5286C9.1773 63.9302 10.5853 64.3319 11.9928 64.7335C11.4192 65.2556 10.8456 65.7772 10.272 66.2993L9.64295 68.9168Z" fill="#CBCFD3"/>
<path d="M14.1816 63.3964L18.1653 64.8806L16.6505 71.0486L14.1816 63.3964Z" fill="#CBCFD3"/>
<path d="M16.1257 61.8639L21.1263 59.0381L22.2001 56.9211L16.1257 61.8639Z" fill="#CBCFD3"/>
<path d="M37.8292 70.3874C38.5188 70.3287 39.2083 70.27 39.8978 70.2113L37.9267 77.9099C37.894 75.4024 37.8619 72.8949 37.8292 70.3874Z" fill="#CBCFD3"/>
<path d="M34.8127 55.1101L40.5226 60.6176L41.1202 53.7322L42.3001 51.7388L34.8127 55.1101Z" fill="#CBCFD3"/>
<path d="M0 44.6611C1.01456 44.988 2.02912 45.3143 3.04368 45.6411C3.34589 45.3143 3.64872 44.988 3.95093 44.6611H0Z" fill="white"/>
<path d="M22.6972 0C22.6972 0 19.6745 6.58699 26.7024 10.297C26.7024 10.297 30.9345 12.9472 34.1842 13.3254C34.4229 12.946 34.661 12.5666 34.899 12.1872C34.2946 12.0302 33.6661 11.8436 33.0186 11.6218C31.0166 10.9359 29.3162 10.0764 27.9174 9.22426C27.7626 8.84548 27.5455 8.16206 27.6152 7.30625C27.7348 5.83313 28.6193 4.89019 28.8937 4.61831C28.6223 4.71594 28.2455 4.88648 27.8545 5.18617C27.5048 5.45435 27.2599 5.73736 27.099 5.9561C26.9244 6.23787 26.637 6.7909 26.6037 7.53364C26.5864 7.91489 26.6407 8.2393 26.7024 8.47967C26.7024 8.47967 22.6972 5.98081 23.4527 4.01275C23.568 3.72357 23.7494 3.36023 24.0386 2.99072C24.5955 2.27764 25.2592 1.91431 25.6446 1.74129C25.3819 1.71163 24.9348 1.69989 24.442 1.89268C23.4083 2.2968 23.0154 3.26878 22.9433 3.45724C22.8532 3.13098 22.7737 2.76827 22.7163 2.37218C22.5843 1.45272 22.617 0.641397 22.6978 0L22.6972 0Z" fill="white"/>
<path d="M56.5792 38.8886V37.9419H57.5043V32.9319H56.5792V31.9852H59.3355C60.2538 31.9852 60.9581 32.2188 61.4466 32.6853C61.9351 33.1525 62.1799 33.8557 62.1799 34.7955V36.0876C62.1799 37.028 61.9351 37.7294 61.4466 38.1934C60.9575 38.6569 60.2538 38.8886 59.3355 38.8886H56.5792ZM58.5775 37.9222H59.3453C59.9423 37.9222 60.3852 37.7708 60.6744 37.4686C60.9631 37.1665 61.1074 36.716 61.1074 36.1172V34.7566C61.1074 34.1516 60.9631 33.7012 60.6744 33.4052C60.3858 33.1092 59.9423 32.9615 59.3453 32.9615H58.5775V37.9222Z" fill="#EFEAEA"/>
<path d="M63.3814 38.8886V31.9852H67.7221V32.9517H64.444V34.9339H67.4464V35.9003H64.444V37.9222H67.7714V38.8886H63.3814Z" fill="#EFEAEA"/>
<path d="M68.8834 38.8886V31.9852H73.2242V32.9517H69.9461V34.9339H72.9485V35.9003H69.9461V37.9222H73.2735V38.8886H68.8834Z" fill="#EFEAEA"/>
<path d="M74.3861 38.8886V31.9852H77.2799C77.7067 31.9852 78.0823 32.0594 78.4067 32.2071C78.7318 32.3547 78.984 32.5673 79.1647 32.8429C79.3454 33.1191 79.4355 33.4478 79.4355 33.8291V33.9378C79.4355 34.3716 79.3319 34.7189 79.1253 34.9784C78.9186 35.2379 78.6676 35.4208 78.3722 35.5259V35.6835C78.6214 35.6964 78.8218 35.7805 78.9729 35.935C79.124 36.0894 79.1993 36.3113 79.1993 36.6004V38.8886H78.1261V36.7487C78.1261 36.5714 78.0799 36.4299 77.9886 36.3249C77.8967 36.2198 77.7487 36.1673 77.5457 36.1673H75.4488V38.8892H74.3855L74.3861 38.8886ZM75.4494 35.2002H77.1621C77.5427 35.2002 77.8381 35.1032 78.0478 34.9092C78.2575 34.7152 78.3629 34.4507 78.3629 34.1152V34.0361C78.3629 33.7006 78.2593 33.4361 78.0527 33.2421C77.8461 33.048 77.5488 32.951 77.1621 32.951H75.4494V35.1996V35.2002Z" fill="#EFEAEA"/>
<path d="M81.2272 38.8886L80.2132 31.9852H81.2765L82.1036 38.1687H82.2608L83.3241 31.9852H85.1849L86.2482 38.1687H86.4054L87.2226 31.9852H88.2859L87.272 38.8886H85.4112L84.3282 32.6161H84.1709L83.0978 38.8886H81.2278H81.2272Z" fill="#EFEAEA"/>
<path d="M88.8262 38.8886L90.7949 31.9852H92.6649L94.6237 38.8886H93.5308L93.0781 37.2616H90.381L89.9283 38.8886H88.8256H88.8262ZM90.6475 36.2754H92.8129L91.8088 32.6464H91.6515L90.6475 36.2754Z" fill="#EFEAEA"/>
<path d="M95.5593 38.8886V31.9852H96.6226V37.9222H99.9401V38.8886H95.5599H95.5593Z" fill="#EFEAEA"/>
<path d="M100.914 38.8886V31.9852H101.977V34.8548H102.135L104.704 31.9852H106.092L102.981 35.3875L106.2 38.8886H104.773L102.135 35.9597H101.978V38.8886H100.915H100.914Z" fill="#EFEAEA"/>
<path d="M56.5792 50.06V49.1133H57.5043V44.1033H56.5792V43.1566H59.3355C60.2538 43.1566 60.9581 43.3902 61.4466 43.8567C61.9351 44.3239 62.1799 45.0271 62.1799 45.9669V47.259C62.1799 48.1994 61.9351 48.9008 61.4466 49.3648C60.9575 49.8283 60.2538 50.06 59.3355 50.06H56.5792ZM58.5775 49.0936H59.3453C59.9423 49.0936 60.3852 48.9422 60.6744 48.64C60.9631 48.3378 61.1074 47.8874 61.1074 47.2886V45.928C61.1074 45.323 60.9631 44.8726 60.6744 44.5766C60.3858 44.2806 59.9423 44.1329 59.3453 44.1329H58.5775V49.0936Z" fill="#EFEAEA"/>
<path d="M63.3814 50.06V43.1566H67.7221V44.123H64.444V46.1053H67.4464V47.0717H64.444V49.0936H67.7714V50.06H63.3814Z" fill="#EFEAEA"/>
<path d="M70.2915 50.06L68.3721 43.1566H69.4749L71.1482 49.3895H71.2764L72.9398 43.1566H74.0426L72.1331 50.06H70.2927H70.2915Z" fill="#EFEAEA"/>
<path d="M74.9763 50.06V43.1566H79.3171V44.123H76.039V46.1053H79.0414V47.0717H76.039V49.0936H79.3664V50.06H74.9763Z" fill="#EFEAEA"/>
<path d="M80.479 50.06V43.1566H81.5423V49.0936H84.8598V50.06H80.4797H80.479Z" fill="#EFEAEA"/>
<path d="M88.4228 50.1978C87.576 50.1978 86.9038 49.9592 86.4048 49.4828C85.9058 49.0064 85.6567 48.3174 85.6567 47.4165V45.7994C85.6567 44.8985 85.9058 44.2101 86.4048 43.7331C86.9031 43.2567 87.576 43.0182 88.4228 43.0182C89.2696 43.0182 89.9437 43.2567 90.4458 43.7331C90.9478 44.2101 91.1988 44.8985 91.1988 45.7994V47.4165C91.1988 48.3174 90.9478 49.0058 90.4458 49.4828C89.9437 49.9599 89.2696 50.1978 88.4228 50.1978ZM88.4228 49.2412C88.9674 49.2412 89.3874 49.0818 89.6829 48.763C89.9783 48.4441 90.1257 48.0085 90.1257 47.4561V45.7599C90.1257 45.2075 89.9783 44.7718 89.6829 44.453C89.3874 44.1341 88.9674 43.9747 88.4228 43.9747C87.8782 43.9747 87.4743 44.1341 87.1727 44.453C86.8711 44.7718 86.72 45.2075 86.72 45.7599V47.4561C86.72 48.0085 86.8711 48.4441 87.1727 48.763C87.4743 49.0818 87.8912 49.2412 88.4228 49.2412Z" fill="#EFEAEA"/>
<path d="M92.4582 50.06V43.1566H95.1948C95.6148 43.1566 95.9904 43.2407 96.3216 43.4081C96.6528 43.5756 96.9124 43.8122 97.0993 44.1181C97.2862 44.424 97.38 44.7904 97.38 45.2174V45.3459C97.38 45.7735 97.2831 46.1418 97.0895 46.4507C96.8958 46.7597 96.6349 46.9963 96.3068 47.1607C95.9787 47.3251 95.608 47.4073 95.1942 47.4073H93.5209V50.06H92.4576H92.4582ZM93.5215 46.4408H95.0869C95.4612 46.4408 95.7597 46.342 95.9824 46.1449C96.2056 45.9477 96.3173 45.6783 96.3173 45.336V45.2371C96.3173 44.8886 96.2056 44.6161 95.9824 44.4184C95.7591 44.2213 95.4606 44.1224 95.0869 44.1224H93.5215V46.4402V46.4408Z" fill="#EFEAEA"/>
<path d="M98.3939 50.06V43.1566H102.735V44.123H99.4566V46.1053H102.459V47.0717H99.4566V49.0936H102.784V50.06H98.3939Z" fill="#EFEAEA"/>
<path d="M103.897 50.06V43.1566H106.79C107.217 43.1566 107.593 43.2308 107.917 43.3784C108.242 43.5261 108.494 43.7387 108.675 44.0143C108.856 44.2905 108.946 44.6192 108.946 45.0005V45.1092C108.946 45.543 108.842 45.8903 108.636 46.1498C108.429 46.4093 108.178 46.5922 107.883 46.6973V46.8548C108.132 46.8678 108.332 46.9519 108.483 47.1063C108.634 47.2608 108.71 47.4827 108.71 47.7718V50.06H107.637V47.9201C107.637 47.7428 107.59 47.6013 107.499 47.4962C107.407 47.3912 107.259 47.3387 107.056 47.3387H104.959V50.0606H103.896L103.897 50.06ZM104.96 46.3716H106.673C107.053 46.3716 107.349 46.2746 107.558 46.0806C107.768 45.8866 107.873 45.6221 107.873 45.2866V45.2075C107.873 44.872 107.77 44.6075 107.563 44.4135C107.357 44.2194 107.059 44.1224 106.673 44.1224H104.96V46.371V46.3716Z" fill="#EFEAEA"/>
<path d="M112.46 50.1978C111.942 50.1978 111.482 50.1057 111.082 49.9216C110.682 49.7374 110.369 49.4661 110.142 49.1078C109.916 48.7494 109.803 48.3137 109.803 47.8009V47.5543H110.856V47.8009C110.856 48.2878 111.002 48.6524 111.294 48.8958C111.586 49.1393 111.975 49.261 112.46 49.261C112.946 49.261 113.323 49.1572 113.573 48.9502C113.822 48.7432 113.947 48.475 113.947 48.1463C113.947 47.9294 113.887 47.752 113.77 47.6136C113.652 47.4752 113.484 47.3652 113.268 47.283C113.051 47.2009 112.791 47.1236 112.49 47.0513L112.125 46.9624C111.686 46.8573 111.303 46.7275 110.979 46.5731C110.654 46.4186 110.403 46.2128 110.226 45.957C110.049 45.7006 109.96 45.3718 109.96 44.9708C109.96 44.5698 110.06 44.2145 110.26 43.9253C110.461 43.6361 110.738 43.4124 111.092 43.2549C111.447 43.0973 111.863 43.0182 112.342 43.0182C112.822 43.0182 113.25 43.1004 113.627 43.2647C114.005 43.4291 114.301 43.6726 114.518 43.9945C114.734 44.3164 114.843 44.7212 114.843 45.2075V45.5628H113.789V45.2075C113.789 44.9115 113.728 44.6717 113.607 44.4876C113.486 44.3035 113.317 44.1687 113.1 44.0835C112.884 43.9982 112.631 43.955 112.342 43.955C111.922 43.955 111.596 44.0421 111.363 44.2163C111.13 44.3906 111.013 44.6322 111.013 44.9411C111.013 45.1519 111.064 45.3243 111.166 45.459C111.267 45.5937 111.417 45.7037 111.613 45.7895C111.81 45.8748 112.056 45.9508 112.352 46.0163L112.716 46.1053C113.162 46.2042 113.556 46.3308 113.897 46.4853C114.238 46.6398 114.508 46.8487 114.705 47.1113C114.901 47.3745 115 47.7131 115 48.1271C115 48.5411 114.896 48.9032 114.69 49.2122C114.483 49.5211 114.19 49.7627 113.809 49.937C113.429 50.1113 112.979 50.1984 112.46 50.1984V50.1978Z" fill="#EFEAEA"/>
<path d="M59.3947 60.8704C58.5547 60.8704 57.8886 60.6319 57.3964 60.1554C56.9042 59.679 56.6581 58.99 56.6581 58.0891V56.472C56.6581 55.5711 56.9042 54.8828 57.3964 54.4057C57.8886 53.9293 58.5547 53.6908 59.3947 53.6908C60.2347 53.6908 60.8595 53.9213 61.3091 54.381C61.7587 54.8414 61.9832 55.4692 61.9832 56.2644V56.3237H60.9298V56.2348C60.9298 55.7682 60.8033 55.3864 60.5511 55.091C60.2982 54.795 59.9127 54.6473 59.3947 54.6473C58.8766 54.6473 58.4597 54.8068 58.1642 55.1256C57.8688 55.4444 57.7214 55.8869 57.7214 56.4523V58.1089C57.7214 58.6675 57.8688 59.1081 58.1642 59.4306C58.4597 59.7526 58.8698 59.9138 59.3947 59.9138C59.9195 59.9138 60.2988 59.7643 60.5511 59.4652C60.8033 59.1662 60.9298 58.7861 60.9298 58.3264V58.159H61.9832V58.2967C61.9832 59.0926 61.7581 59.7204 61.3091 60.1802C60.8595 60.6405 60.2211 60.8704 59.3947 60.8704Z" fill="#EFEAEA"/>
<path d="M65.7534 60.8704C64.9066 60.8704 64.2343 60.6319 63.7354 60.1554C63.2364 59.679 62.9873 58.99 62.9873 58.0891V56.472C62.9873 55.5711 63.2364 54.8828 63.7354 54.4057C64.2337 53.9293 64.9066 53.6908 65.7534 53.6908C66.6002 53.6908 67.2743 53.9293 67.7764 54.4057C68.2784 54.8828 68.5294 55.5711 68.5294 56.472V58.0891C68.5294 58.99 68.2784 59.6784 67.7764 60.1554C67.2743 60.6325 66.6002 60.8704 65.7534 60.8704ZM65.7534 59.9138C66.298 59.9138 66.718 59.7544 67.0134 59.4356C67.3089 59.1167 67.4563 58.6811 67.4563 58.1287V56.4325C67.4563 55.8801 67.3089 55.4444 67.0134 55.1256C66.718 54.8068 66.298 54.6473 65.7534 54.6473C65.2088 54.6473 64.8048 54.8068 64.5032 55.1256C64.2017 55.4444 64.0506 55.8801 64.0506 56.4325V58.1287C64.0506 58.6811 64.2017 59.1167 64.5032 59.4356C64.8048 59.7544 65.2218 59.9138 65.7534 59.9138Z" fill="#EFEAEA"/>
<path d="M69.7895 60.7326V53.8292H71.7877L73.2938 60.0226H73.4511L74.9572 53.8292H76.9555V60.7326H75.9218V54.5788H75.7646L74.2683 60.7326H72.4766L70.9804 54.5788H70.8231V60.7326H69.7895Z" fill="#EFEAEA"/>
<path d="M78.3926 60.7326V53.8292H80.3908L81.897 60.0226H82.0542L83.5603 53.8292H85.5586V60.7326H84.5249V54.5788H84.3677L82.8714 60.7326H81.0798L79.5835 54.5788H79.4262V60.7326H78.3926Z" fill="#EFEAEA"/>
<path d="M89.5743 60.8704C89.0297 60.8704 88.5622 60.7715 88.1718 60.5744C87.7814 60.3773 87.4792 60.0931 87.2664 59.7211C87.053 59.3497 86.9463 58.8974 86.9463 58.3647V53.828H88.0195V58.3944C88.0195 58.8813 88.1539 59.2558 88.4228 59.519C88.6917 59.7822 89.076 59.9132 89.5743 59.9132C90.0726 59.9132 90.4569 59.7816 90.7258 59.519C90.9947 59.2564 91.1292 58.8813 91.1292 58.3944V53.828H92.1924V58.3647C92.1924 58.8974 92.0876 59.3497 91.8773 59.7211C91.667 60.0924 91.3654 60.3767 90.9719 60.5744C90.5784 60.7715 90.1121 60.8704 89.5743 60.8704Z" fill="#EFEAEA"/>
<path d="M93.5807 60.7326V53.8292H95.6284L97.4984 60.0226H97.6556V53.8292H98.7091V60.7326H96.6614L94.7914 54.5293H94.6342V60.7326H93.5807Z" fill="#EFEAEA"/>
<path d="M100.146 60.7326V53.8292H101.209V60.7326H100.146Z" fill="#EFEAEA"/>
<path d="M104.291 60.7326V54.7956H102.175V53.8292H107.471V54.7956H105.355V60.7326H104.291H104.291Z" fill="#EFEAEA"/>
<path d="M110.216 60.7326V58.2276L107.825 53.8292H109.026L110.679 56.9553H110.826L112.48 53.8292H113.681L111.289 58.2276V60.7326H110.216H110.216Z" fill="#EFEAEA"/>
</g>
<defs>
<clipPath id="clip0_1943_3167">
<rect width="115" height="82" fill="white"/>
</clipPath>
</defs>
</svg>
