<svg width="1072" height="837" viewBox="0 0 1072 837" fill="none" xmlns="http://www.w3.org/2000/svg">
<path d="M1072 177.247V679.447H1049.9V718.835H1027.79V758.224H1005.69V777.918H983.588V797.612H939.381V817.306H895.175V837H198.928V817.306H873.072V797.612H917.278V777.918H961.484V758.224H983.588V738.53H1005.69V699.141H1027.79V659.753H1049.9V177.247H1072ZM1049.9 137.859H1027.79V157.553H1049.9V137.859ZM1027.79 98.4707H1005.69V118.165H1027.79V98.4707Z" fill="#71219D"/>
<path d="M22.1031 659.753H0V157.553H22.1031V659.753ZM66.3093 78.7765H44.2062V118.165H66.3093V78.7765ZM132.619 59.0824V39.3882H88.4124V59.0824H132.619ZM88.4124 59.0824H66.3093V78.7765H88.4124V59.0824ZM176.825 39.3882V19.6941H132.619V39.3882H176.825ZM873.072 19.6941V0H176.825V19.6941H873.072ZM44.2062 118.165H22.1031V157.553H44.2062V118.165ZM1027.79 157.553V659.753H1049.9V157.553H1027.79ZM983.588 118.165H1005.69V78.7765H983.588V118.165ZM961.485 59.0824V39.3882H917.278V59.0824H961.485ZM983.588 78.7765V59.0824H961.485V78.7765H983.588ZM917.278 39.3882V19.6941H873.072V39.3882H917.278ZM1005.69 157.553H1027.79V118.165H1005.69V157.553ZM66.3093 699.141H44.2062V738.529H66.3093V699.141ZM88.4124 758.224V777.918H132.619V758.224H88.4124ZM66.3093 738.529V758.224H88.4124V738.529H66.3093ZM132.619 777.918V797.612H176.825V777.918H132.619ZM176.825 797.612V817.306H873.072V797.612H176.825ZM44.2062 659.753H22.1031V699.141H44.2062V659.753ZM983.588 738.529H1005.69V699.141H983.588V738.529ZM917.278 758.224V777.918H961.485V758.224H917.278ZM961.485 758.224H983.588V738.529H961.485V758.224ZM873.072 777.918V797.612H917.278V777.918H873.072ZM1005.69 699.141H1027.79V659.753H1005.69V699.141Z" fill="black"/>
<path d="M1027.79 157.553V659.753H1005.69V699.141H983.588V738.53H961.484V758.224H917.278V777.918H873.072V797.612H176.825V777.918H132.618V758.224H88.4123V738.53H66.3092V699.141H44.2061V659.753H22.103V157.553H44.2061V118.165H66.3092V78.7767H88.4123V59.0826H132.618V39.3885H176.825V19.6943H873.072V39.3885H917.278V59.0826H961.484V78.7767H983.588V118.165H1005.69V157.553H1027.79Z" fill="#FFF9F5"/>
</svg>
